<svg width="24" height="24" viewBox="0 0 24 24" fill="none" xmlns="http://www.w3.org/2000/svg">
<path d="M21.3333 0C17.3013 0 11.7547 3.056 8.13067 8H5.33333C3.19733 8 2.176 8.97867 1.33333 10.6667L0 13.3333H5.33333L8 16L10.6667 18.6667V24L13.3333 22.6667C15.0213 21.824 16 20.8027 16 18.6667V15.8693C20.944 12.2453 24 6.69867 24 2.66667V0H21.3333ZM17.3333 5.33333C17.687 5.33333 18.0261 5.47381 18.2761 5.72386C18.5262 5.97391 18.6667 6.31305 18.6667 6.66667C18.6667 7.02029 18.5262 7.35943 18.2761 7.60948C18.0261 7.85952 17.687 8 17.3333 8C16.9797 8 16.6406 7.85952 16.3905 7.60948C16.1405 7.35943 16 7.02029 16 6.66667C16 6.31305 16.1405 5.97391 16.3905 5.72386C16.6406 5.47381 16.9797 5.33333 17.3333 5.33333ZM4.66667 16.6667L4 17.3333C2.66667 18.6667 2.66667 21.3333 2.66667 21.3333C2.66667 21.3333 5.18667 21.48 6.66667 20L7.33333 19.3333L4.66667 16.6667Z" fill="#BDBDBD"/>
</svg>
